<mxfile host="app.diagrams.net" agent="Mozilla/5.0 (Macintosh; Intel Mac OS X 10_15_7) AppleWebKit/537.36 (KHTML, like Gecko) Chrome/131.0.0.0 Safari/537.36" version="25.0.3">
  <diagram name="Pagina-1" id="uMJ0QZBlUha--5ZL_vDN">
    <mxGraphModel dx="1247" dy="712" grid="1" gridSize="10" guides="1" tooltips="1" connect="1" arrows="1" fold="1" page="1" pageScale="1" pageWidth="827" pageHeight="1169" math="0" shadow="0">
      <root>
        <mxCell id="0" />
        <mxCell id="1" parent="0" />
        <mxCell id="ELrA8scSSR2OoGxMMV72-3" style="edgeStyle=orthogonalEdgeStyle;rounded=0;orthogonalLoop=1;jettySize=auto;html=1;exitX=0.5;exitY=1;exitDx=0;exitDy=0;entryX=0.5;entryY=0;entryDx=0;entryDy=0;" parent="1" source="ELrA8scSSR2OoGxMMV72-1" target="ELrA8scSSR2OoGxMMV72-2" edge="1">
          <mxGeometry relative="1" as="geometry" />
        </mxCell>
        <mxCell id="ELrA8scSSR2OoGxMMV72-1" value="start programma" style="rounded=1;whiteSpace=wrap;html=1;" parent="1" vertex="1">
          <mxGeometry x="350" y="160" width="100" height="40" as="geometry" />
        </mxCell>
        <mxCell id="d31s1yVWivPr_3qKPYpL-4" style="edgeStyle=orthogonalEdgeStyle;rounded=0;orthogonalLoop=1;jettySize=auto;html=1;exitX=0.5;exitY=1;exitDx=0;exitDy=0;entryX=0.5;entryY=0;entryDx=0;entryDy=0;" edge="1" parent="1" source="ELrA8scSSR2OoGxMMV72-2" target="d31s1yVWivPr_3qKPYpL-3">
          <mxGeometry relative="1" as="geometry" />
        </mxCell>
        <mxCell id="ELrA8scSSR2OoGxMMV72-2" value="vraag een naam" style="shape=parallelogram;perimeter=parallelogramPerimeter;whiteSpace=wrap;html=1;fixedSize=1;" parent="1" vertex="1">
          <mxGeometry x="345" y="240" width="110" height="40" as="geometry" />
        </mxCell>
        <mxCell id="ELrA8scSSR2OoGxMMV72-6" style="edgeStyle=orthogonalEdgeStyle;rounded=0;orthogonalLoop=1;jettySize=auto;html=1;exitX=0.5;exitY=1;exitDx=0;exitDy=0;" parent="1" source="ELrA8scSSR2OoGxMMV72-4" target="ELrA8scSSR2OoGxMMV72-7" edge="1">
          <mxGeometry relative="1" as="geometry">
            <mxPoint x="400" y="400" as="targetPoint" />
          </mxGeometry>
        </mxCell>
        <mxCell id="ELrA8scSSR2OoGxMMV72-4" value="voeg de naam toe aan een lijst" style="rounded=0;whiteSpace=wrap;html=1;" parent="1" vertex="1">
          <mxGeometry x="350" y="370" width="100" height="40" as="geometry" />
        </mxCell>
        <mxCell id="ELrA8scSSR2OoGxMMV72-10" style="edgeStyle=orthogonalEdgeStyle;rounded=0;orthogonalLoop=1;jettySize=auto;html=1;exitX=0.5;exitY=1;exitDx=0;exitDy=0;" parent="1" source="ELrA8scSSR2OoGxMMV72-7" target="ELrA8scSSR2OoGxMMV72-11" edge="1">
          <mxGeometry relative="1" as="geometry">
            <mxPoint x="400" y="510" as="targetPoint" />
          </mxGeometry>
        </mxCell>
        <mxCell id="d31s1yVWivPr_3qKPYpL-9" style="edgeStyle=orthogonalEdgeStyle;rounded=0;orthogonalLoop=1;jettySize=auto;html=1;exitX=1;exitY=0.5;exitDx=0;exitDy=0;entryX=1;entryY=0.5;entryDx=0;entryDy=0;" edge="1" parent="1" source="ELrA8scSSR2OoGxMMV72-7" target="ELrA8scSSR2OoGxMMV72-2">
          <mxGeometry relative="1" as="geometry">
            <Array as="points">
              <mxPoint x="510" y="473" />
              <mxPoint x="510" y="260" />
            </Array>
          </mxGeometry>
        </mxCell>
        <mxCell id="ELrA8scSSR2OoGxMMV72-7" value="als er meer dan of 3 namen zijn" style="rhombus;whiteSpace=wrap;html=1;" parent="1" vertex="1">
          <mxGeometry x="360" y="433" width="80" height="80" as="geometry" />
        </mxCell>
        <mxCell id="ELrA8scSSR2OoGxMMV72-17" style="edgeStyle=orthogonalEdgeStyle;rounded=0;orthogonalLoop=1;jettySize=auto;html=1;exitX=0.5;exitY=1;exitDx=0;exitDy=0;" parent="1" source="ELrA8scSSR2OoGxMMV72-11" edge="1">
          <mxGeometry relative="1" as="geometry">
            <mxPoint x="400" y="590" as="targetPoint" />
          </mxGeometry>
        </mxCell>
        <mxCell id="d31s1yVWivPr_3qKPYpL-2" style="edgeStyle=orthogonalEdgeStyle;rounded=0;orthogonalLoop=1;jettySize=auto;html=1;exitX=0.5;exitY=1;exitDx=0;exitDy=0;entryX=0.5;entryY=0;entryDx=0;entryDy=0;" edge="1" parent="1" source="ELrA8scSSR2OoGxMMV72-11" target="ELrA8scSSR2OoGxMMV72-19">
          <mxGeometry relative="1" as="geometry" />
        </mxCell>
        <mxCell id="d31s1yVWivPr_3qKPYpL-11" style="edgeStyle=orthogonalEdgeStyle;rounded=0;orthogonalLoop=1;jettySize=auto;html=1;exitX=0;exitY=0.5;exitDx=0;exitDy=0;entryX=0;entryY=0.5;entryDx=0;entryDy=0;" edge="1" parent="1" source="ELrA8scSSR2OoGxMMV72-11" target="ELrA8scSSR2OoGxMMV72-2">
          <mxGeometry relative="1" as="geometry">
            <Array as="points">
              <mxPoint x="280" y="560" />
              <mxPoint x="280" y="260" />
            </Array>
          </mxGeometry>
        </mxCell>
        <mxCell id="ELrA8scSSR2OoGxMMV72-11" value="wil je nog een naam toevoegen?" style="shape=parallelogram;perimeter=parallelogramPerimeter;whiteSpace=wrap;html=1;fixedSize=1;" parent="1" vertex="1">
          <mxGeometry x="345" y="534.5" width="110" height="50" as="geometry" />
        </mxCell>
        <mxCell id="ELrA8scSSR2OoGxMMV72-16" value="True" style="text;html=1;align=center;verticalAlign=middle;resizable=0;points=[];autosize=1;strokeColor=none;fillColor=none;" parent="1" vertex="1">
          <mxGeometry x="395" y="504.5" width="50" height="30" as="geometry" />
        </mxCell>
        <mxCell id="ELrA8scSSR2OoGxMMV72-18" value="nee" style="text;html=1;align=center;verticalAlign=middle;resizable=0;points=[];autosize=1;strokeColor=none;fillColor=none;" parent="1" vertex="1">
          <mxGeometry x="405" y="600" width="40" height="30" as="geometry" />
        </mxCell>
        <mxCell id="ELrA8scSSR2OoGxMMV72-20" style="edgeStyle=orthogonalEdgeStyle;rounded=0;orthogonalLoop=1;jettySize=auto;html=1;exitX=0.5;exitY=1;exitDx=0;exitDy=0;" parent="1" source="ELrA8scSSR2OoGxMMV72-19" edge="1">
          <mxGeometry relative="1" as="geometry">
            <mxPoint x="400" y="680" as="targetPoint" />
          </mxGeometry>
        </mxCell>
        <mxCell id="d31s1yVWivPr_3qKPYpL-1" style="edgeStyle=orthogonalEdgeStyle;rounded=0;orthogonalLoop=1;jettySize=auto;html=1;exitX=0.5;exitY=1;exitDx=0;exitDy=0;entryX=0.5;entryY=0;entryDx=0;entryDy=0;" edge="1" parent="1" source="ELrA8scSSR2OoGxMMV72-19" target="ELrA8scSSR2OoGxMMV72-24">
          <mxGeometry relative="1" as="geometry" />
        </mxCell>
        <mxCell id="ELrA8scSSR2OoGxMMV72-19" value="hussel de lootjes tot niemand zichzelf heeft getrokken" style="whiteSpace=wrap;html=1;" parent="1" vertex="1">
          <mxGeometry x="345" y="630" width="110" height="50" as="geometry" />
        </mxCell>
        <mxCell id="ELrA8scSSR2OoGxMMV72-25" style="edgeStyle=orthogonalEdgeStyle;rounded=0;orthogonalLoop=1;jettySize=auto;html=1;exitX=0.5;exitY=1;exitDx=0;exitDy=0;" parent="1" source="ELrA8scSSR2OoGxMMV72-24" target="ELrA8scSSR2OoGxMMV72-26" edge="1">
          <mxGeometry relative="1" as="geometry">
            <mxPoint x="400" y="810" as="targetPoint" />
          </mxGeometry>
        </mxCell>
        <mxCell id="ELrA8scSSR2OoGxMMV72-24" value="print de namen met de bijbehorende lootjes" style="ellipse;whiteSpace=wrap;html=1;" parent="1" vertex="1">
          <mxGeometry x="360" y="720" width="80" height="80" as="geometry" />
        </mxCell>
        <mxCell id="ELrA8scSSR2OoGxMMV72-26" value="einde programma" style="rounded=1;whiteSpace=wrap;html=1;" parent="1" vertex="1">
          <mxGeometry x="350" y="830" width="100" height="50" as="geometry" />
        </mxCell>
        <mxCell id="d31s1yVWivPr_3qKPYpL-5" style="edgeStyle=orthogonalEdgeStyle;rounded=0;orthogonalLoop=1;jettySize=auto;html=1;exitX=0.5;exitY=1;exitDx=0;exitDy=0;entryX=0.5;entryY=0;entryDx=0;entryDy=0;" edge="1" parent="1" source="d31s1yVWivPr_3qKPYpL-3" target="ELrA8scSSR2OoGxMMV72-4">
          <mxGeometry relative="1" as="geometry" />
        </mxCell>
        <mxCell id="d31s1yVWivPr_3qKPYpL-7" style="edgeStyle=orthogonalEdgeStyle;rounded=0;orthogonalLoop=1;jettySize=auto;html=1;exitX=1;exitY=0.5;exitDx=0;exitDy=0;entryX=1;entryY=0.5;entryDx=0;entryDy=0;" edge="1" parent="1" source="d31s1yVWivPr_3qKPYpL-3" target="ELrA8scSSR2OoGxMMV72-2">
          <mxGeometry relative="1" as="geometry">
            <mxPoint x="510" y="260" as="targetPoint" />
            <Array as="points">
              <mxPoint x="510" y="320" />
              <mxPoint x="510" y="260" />
            </Array>
          </mxGeometry>
        </mxCell>
        <mxCell id="d31s1yVWivPr_3qKPYpL-3" value="kijk of de naam al in de lijst staat" style="rounded=0;whiteSpace=wrap;html=1;" vertex="1" parent="1">
          <mxGeometry x="350" y="300" width="100" height="40" as="geometry" />
        </mxCell>
        <mxCell id="d31s1yVWivPr_3qKPYpL-6" value="False" style="text;html=1;align=center;verticalAlign=middle;resizable=0;points=[];autosize=1;strokeColor=none;fillColor=none;" vertex="1" parent="1">
          <mxGeometry x="395" y="338" width="50" height="30" as="geometry" />
        </mxCell>
        <mxCell id="d31s1yVWivPr_3qKPYpL-8" value="True" style="text;html=1;align=center;verticalAlign=middle;resizable=0;points=[];autosize=1;strokeColor=none;fillColor=none;" vertex="1" parent="1">
          <mxGeometry x="445" y="300" width="50" height="30" as="geometry" />
        </mxCell>
        <mxCell id="d31s1yVWivPr_3qKPYpL-10" value="False" style="text;html=1;align=center;verticalAlign=middle;resizable=0;points=[];autosize=1;strokeColor=none;fillColor=none;" vertex="1" parent="1">
          <mxGeometry x="440" y="448" width="50" height="30" as="geometry" />
        </mxCell>
        <mxCell id="d31s1yVWivPr_3qKPYpL-12" value="ja" style="text;html=1;align=center;verticalAlign=middle;resizable=0;points=[];autosize=1;strokeColor=none;fillColor=none;" vertex="1" parent="1">
          <mxGeometry x="310" y="534.5" width="30" height="30" as="geometry" />
        </mxCell>
      </root>
    </mxGraphModel>
  </diagram>
</mxfile>
